HIERARCHY
ROOT Hips
{
 OFFSET 0.000000 0.000000 0.000000
 CHANNELS 6 Xposition Yposition Zposition Yrotation Xrotation Zrotation
 JOINT Chest
 {
  OFFSET 0.000000 9.585900 0.002600
  CHANNELS 3 Yrotation Xrotation Zrotation
  JOINT Chest2
  {
   OFFSET 0.000000 9.601200 -0.005300
   CHANNELS 3 Yrotation Xrotation Zrotation
   JOINT Chest3
   {
    OFFSET 0.000000 9.561800 0.000000
    CHANNELS 3 Yrotation Xrotation Zrotation
    JOINT Chest4
    {
     OFFSET 0.000000 9.552100 0.000000
     CHANNELS 3 Yrotation Xrotation Zrotation
     JOINT Neck
     {
      OFFSET 0.000000 14.453000 0.000000
      CHANNELS 3 Yrotation Xrotation Zrotation
      JOINT Head
      {
       OFFSET 0.000000 8.936500 -0.011300
       CHANNELS 3 Yrotation Xrotation Zrotation
       End Site
       {
        OFFSET 0.000000 17.073600 -0.006000
       }
      }
     }
     JOINT RightCollar
     {
      OFFSET -2.921100 9.558500 0.000000
      CHANNELS 3 Yrotation Xrotation Zrotation
      JOINT RightShoulder
      {
       OFFSET -13.519700 0.000000 0.000000
       CHANNELS 3 Yrotation Xrotation Zrotation
       JOINT RightElbow
       {
        OFFSET 0.000000 -29.696600 0.000000
        CHANNELS 3 Yrotation Xrotation Zrotation
        JOINT RightWrist
        {
         OFFSET 0.000000 -24.004700 0.000000
         CHANNELS 3 Yrotation Xrotation Zrotation
         End Site
         {
          OFFSET 0.000000 -17.728500 0.000000
         }
        }
       }
      }
     }
     JOINT LeftCollar
     {
      OFFSET 2.921100 9.558500 0.000000
      CHANNELS 3 Yrotation Xrotation Zrotation
      JOINT LeftShoulder
      {
       OFFSET 13.519700 0.000000 0.000000
       CHANNELS 3 Yrotation Xrotation Zrotation
       JOINT LeftElbow
       {
        OFFSET 0.000000 -29.696600 0.000000
        CHANNELS 3 Yrotation Xrotation Zrotation
        JOINT LeftWrist
        {
         OFFSET 0.000000 -24.004700 0.000000
         CHANNELS 3 Yrotation Xrotation Zrotation
         End Site
         {
          OFFSET 0.000000 -17.728500 0.000000
         }
        }
       }
      }
     }
    }
   }
  }
 }
 JOINT RightHip
 {
  OFFSET -7.771700 -0.012900 -0.001300
  CHANNELS 3 Yrotation Xrotation Zrotation
  JOINT RightKnee
  {
   OFFSET 0.000000 -40.869800 0.001200
   CHANNELS 3 Yrotation Xrotation Zrotation
   JOINT RightAnkle
   {
    OFFSET 0.000000 -39.717900 0.002100
    CHANNELS 3 Yrotation Xrotation Zrotation
    JOINT RightToe
    {
     OFFSET 0.000000 -4.965400 11.033500
     CHANNELS 3 Yrotation Xrotation Zrotation
     End Site
     {
      OFFSET 0.000000 -1.423100 5.872300
     }
    }
   }
  }
 }
 JOINT LeftHip
 {
  OFFSET 7.771700 -0.012900 -0.001300
  CHANNELS 3 Yrotation Xrotation Zrotation
  JOINT LeftKnee
  {
   OFFSET 0.000000 -40.869800 0.001200
   CHANNELS 3 Yrotation Xrotation Zrotation
   JOINT LeftAnkle
   {
    OFFSET 0.000000 -39.717900 0.002100
    CHANNELS 3 Yrotation Xrotation Zrotation
    JOINT LeftToe
    {
     OFFSET 0.000000 -4.965400 11.033500
     CHANNELS 3 Yrotation Xrotation Zrotation
     End Site
     {
      OFFSET 0.000000 -1.423100 5.872300
     }
    }
   }
  }
 }
}
MOTION
Frames: 13
Frame Time: 0.008333
0.000000 85.388000 0.000000 0.000000 -5.767877 0.000000 0.000000 11.653817 0.000000 0.000000 -5.885947 0.000000 0.000000 -0.000000 0.000000 0.000000 -0.000000 0.000000 0.000000 12.528835 0.000000 0.000000 0.711642 0.000000 0.000000 -0.000000 0.000000 0.000000 0.000000 -90.000000 0.000000 -2.309062 0.000000 0.000000 2.309062 0.000000 0.000000 -0.000000 0.000000 0.000000 -0.000000 90.000000 0.000000 -2.309062 0.000000 0.000000 2.309062 0.000000 0.000000 8.520406 0.000000 0.000000 1.905762 0.000000 -0.000000 -4.658285 0.000000 0.000000 -0.000000 0.000000 0.000000 8.520406 0.000000 0.000000 1.905762 0.000000 -0.000000 -4.658285 0.000000 0.000000 -0.000000 0.000000
-8.667276 55.935119 18.294953 -177.938769 -28.921791 -10.537846 -0.662659 14.054385 6.992153 -0.569105 8.240841 2.072619 -0.667049 10.300873 2.581336 -0.570094 8.237525 2.070000 1.704164 19.888220 -1.887898 2.246772 -4.624089 -2.400722 6.626249 -0.704193 -2.573047 -3.372157 -20.726456 2.523921 65.065528 -36.414344 -49.426272 11.319791 11.794084 -12.846446 -10.280330 -3.772955 -5.675912 -8.935129 -19.474426 1.232301 -57.065628 -27.663573 52.617157 -1.699127 1.176998 0.793911 -19.710595 -29.580000 8.030728 68.834146 87.115219 67.549984 3.786681 -27.792682 -4.380964 -1.314211 3.175515 -0.592664 -11.590971 -46.149233 14.097027 177.171290 73.433134 174.923357 -2.084313 -26.055498 1.398900 -0.237255 -1.220247 -0.106740
-8.668305 55.935193 18.294555 -177.936957 -28.920514 -10.533580 -0.665430 14.055458 6.989574 -0.566343 8.241655 2.071938 -0.667556 10.301328 2.580837 -0.570424 8.237817 2.069618 1.702979 19.890374 -1.888295 2.248751 -4.619123 -2.401917 6.628877 -0.707064 -2.568694 -3.373858 -20.727473 2.521838 65.069354 -36.399337 -49.433297 11.315344 11.791546 -12.850398 -10.278671 -3.775633 -5.669115 -8.936259 -19.476281 1.223038 -57.124562 -27.666405 52.611435 -1.669649 1.223427 0.826837 -19.707884 -29.583477 8.025124 68.859757 87.117900 67.576819 3.785562 -27.793140 -4.381404 -1.314594 3.174497 -0.591292 -11.583224 -46.149868 14.084047 177.164731 73.434924 174.919572 -2.085116 -26.059401 1.401802 -0.238053 -1.219711 -0.108130
-8.668825 55.935351 18.294310 -177.936534 -28.918233 -10.532980 -0.659335 14.056574 6.993835 -0.566730 8.240121 2.070731 -0.666920 10.301832 2.580795 -0.569814 8.239193 2.069645 1.697193 19.890972 -1.887620 2.249981 -4.614469 -2.402935 6.621989 -0.712184 -2.567279 -3.371582 -20.728051 2.523090 65.068656 -36.390561 -49.437465 11.313255 11.789496 -12.848441 -10.287493 -3.778010 -5.663158 -8.934801 -19.480289 1.219593 -57.166660 -27.671868 52.603257 -1.651395 1.256908 0.852224 -19.708145 -29.585175 8.024760 68.860254 87.117918 67.577203 3.787030 -27.795669 -4.383198 -1.316031 3.175393 -0.591965 -11.579852 -46.152504 14.078348 177.158159 73.435067 174.915581 -2.082646 -26.058862 1.401602 -0.239974 -1.221269 -0.108599
-8.670246 55.935451 18.294003 -177.937208 -28.916035 -10.527926 -0.655763 14.054977 6.991349 -0.566619 8.240449 2.070839 -0.666166 10.302410 2.580681 -0.568420 8.240310 2.069462 1.699806 19.903460 -1.889679 2.246460 -4.613868 -2.401486 6.616174 -0.716505 -2.564659 -3.363685 -20.731599 2.522750 65.060715 -36.382947 -49.434974 11.316199 11.780886 -12.843046 -10.300059 -3.781848 -5.660340 -8.937164 -19.482062 1.215447 -57.178509 -27.668580 52.602215 -1.646661 1.270177 0.863797 -19.707516 -29.589809 8.019744 68.878405 87.121157 67.595809 3.789002 -27.795644 -4.384241 -1.313333 3.173447 -0.591439 -11.569605 -46.154226 14.065459 177.171456 73.437794 174.930899 -2.077518 -26.063480 1.403650 -0.239208 -1.217828 -0.109305
-8.671286 55.935837 18.293498 -177.935026 -28.914849 -10.528304 -0.654574 14.054762 6.993301 -0.569079 8.239888 2.069370 -0.665959 10.302654 2.580575 -0.566707 8.241785 2.069275 1.695360 19.909618 -1.890360 2.247198 -4.608692 -2.404102 6.612303 -0.720223 -2.563068 -3.355869 -20.730755 2.521361 65.061311 -36.379711 -49.439621 11.310996 11.783605 -12.841842 -10.306099 -3.780306 -5.661419 -8.935702 -19.482427 1.217525 -57.192302 -27.673395 52.604899 -1.645943 1.279812 0.870067 -19.708484 -29.590540 8.019244 68.884691 87.121810 67.601185 3.788505 -27.795909 -4.380109 -1.314453 3.172706 -0.594165 -11.566659 -46.154206 14.057182 177.155511 73.438550 174.919317 -2.076888 -26.066817 1.400576 -0.239006 -1.217176 -0.108092
-8.673204 55.935966 18.293296 -177.936399 -28.911858 -10.523246 -0.652804 14.051452 6.988828 -0.568661 8.240536 2.069819 -0.665375 10.303530 2.581083 -0.568681 8.240542 2.069730 1.691032 19.912914 -1.889985 2.225279 -4.596553 -2.396707 6.604331 -0.722965 -2.561718 -3.354613 -20.728307 2.519955 65.066421 -36.388225 -49.437781 11.317726 11.781294 -12.832726 -10.307416 -3.775786 -5.664386 -8.936718 -19.484201 1.220524 -57.281466 -27.686159 52.591065 -1.608819 1.349385 0.928704 -19.702778 -29.598843 8.014866 68.950498 87.124960 67.669734 3.783925 -27.788956 -4.376710 -1.310526 3.164061 -0.593860 -11.560016 -46.156028 14.046661 177.148630 73.440685 174.913630 -2.077419 -26.071263 1.396997 -0.237640 -1.217352 -0.105139
-8.675295 55.936308 18.292793 -177.935562 -28.910696 -10.519868 -0.656296 14.053209 6.985302 -0.566885 8.240377 2.070781 -0.665384 10.303378 2.580393 -0.567783 8.240437 2.069789 1.688141 19.911965 -1.890775 2.216003 -4.595297 -2.392318 6.599950 -0.726199 -2.561239 -3.354881 -20.729838 2.515650 65.066615 -36.394978 -49.432218 11.308879 11.770162 -12.827567 -10.308401 -3.774812 -5.665930 -8.934197 -19.487120 1.218638 -57.302948 -27.688232 52.591410 -1.603693 1.364026 0.943185 -19.702104 -29.603101 8.009794 68.994458 87.127941 67.715058 3.783258 -27.784274 -4.376827 -1.305690 3.158344 -0.592273 -11.548399 -46.157529 14.030454 177.134916 73.442408 174.905997 -2.075778 -26.073246 1.395554 -0.236799 -1.218026 -0.104777
-8.677206 55.936691 18.292401 -177.936695 -28.909463 -10.518036 -0.653233 14.051815 6.987396 -0.570139 8.240429 2.067807 -0.664934 10.301598 2.580591 -0.569232 8.240260 2.068468 1.675384 19.913575 -1.886153 2.215665 -4.594544 -2.392645 6.609768 -0.724731 -2.563174 -3.370859 -20.731307 2.517384 65.055443 -36.410467 -49.419886 11.320721 11.763353 -12.827672 -10.297464 -3.771715 -5.671910 -8.941349 -19.486846 1.220293 -57.387944 -27.700673 52.582647 -1.574141 1.431232 0.993614 -19.703368 -29.604354 8.005433 68.996232 87.128370 67.717060 3.792171 -27.785982 -4.381679 -1.309195 3.160741 -0.592163 -11.536427 -46.159422 14.015575 177.113856 73.443011 174.893044 -2.071577 -26.074338 1.392743 -0.238576 -1.219751 -0.105126
-8.679154 55.937093 18.292066 -177.937645 -28.908304 -10.517187 -0.653715 14.051583 6.984639 -0.569374 8.239755 2.069854 -0.664984 10.302555 2.580130 -0.566491 8.240658 2.065938 1.651768 19.915499 -1.877760 2.183526 -4.589236 -2.377315 6.615009 -0.724999 -2.564591 -3.386332 -20.735339 2.521962 65.056022 -36.412591 -49.416723 11.321329 11.759887 -12.825924 -10.299859 -3.773182 -5.672454 -8.940584 -19.485475 1.222179 -57.446457 -27.703101 52.573091 -1.547121 1.474854 1.031596 -19.707711 -29.605357 8.006022 69.007970 87.126814 67.724592 3.794467 -27.785356 -4.382434 -1.314945 3.161761 -0.593206 -11.532138 -46.160156 14.008416 177.098731 73.443528 174.880014 -2.070320 -26.074834 1.393774 -0.240295 -1.221722 -0.106941
-8.681248 55.937597 18.291575 -177.938559 -28.908932 -10.516198 -0.651879 14.053656 6.983962 -0.570339 8.237994 2.070389 -0.659608 10.307501 2.574701 -0.566462 8.241192 2.067497 1.646862 19.910249 -1.871875 2.159242 -4.582111 -2.365369 6.612375 -0.731164 -2.560420 -3.391133 -20.737652 2.522510 65.058340 -36.410440 -49.414274 11.318873 11.755980 -12.826669 -10.305523 -3.774670 -5.665088 -8.940370 -19.487585 1.220687 -57.508796 -27.709472 52.565029 -1.517775 1.526561 1.073035 -19.706847 -29.605335 8.005074 69.022007 87.126601 67.737138 3.792611 -27.784730 -4.381767 -1.316543 3.161435 -0.593084 -11.528931 -46.158389 14.002787 177.101654 73.444910 174.883123 -2.068579 -26.076083 1.394156 -0.239144 -1.222807 -0.106694
-8.683088 55.938103 18.291223 -177.937415 -28.909418 -10.517885 -0.651493 14.055864 6.983914 -0.566036 8.239010 2.068667 -0.661109 10.309662 2.576457 -0.566080 8.240326 2.067880 1.635252 19.914525 -1.871002 2.146699 -4.585334 -2.356276 6.610702 -0.734882 -2.557557 -3.393232 -20.741174 2.521063 65.064855 -36.408374 -49.412204 11.316532 11.763583 -12.825126 -10.324031 -3.774041 -5.665292 -8.922140 -19.488167 1.222016 -57.558722 -27.716179 52.568602 -1.500315 1.558556 1.094501 -19.711298 -29.602865 8.007439 69.006927 87.126028 67.718758 3.789112 -27.787131 -4.382928 -1.314097 3.163936 -0.591114 -11.529544 -46.156725 14.001430 177.104070 73.445431 174.884770 -2.068505 -26.076129 1.394816 -0.237932 -1.223910 -0.105543
-8.686147 55.938261 18.291123 -177.933954 -28.908729 -10.512856 -0.656257 14.056383 6.976561 -0.564340 8.247510 2.066506 -0.661266 10.302216 2.578987 -0.565083 8.243071 2.067321 1.603416 19.927487 -1.864526 2.168767 -4.601656 -2.368751 6.607636 -0.735460 -2.557824 -3.398616 -20.755290 2.524918 65.072948 -36.402451 -49.406340 11.310376 11.769064 -12.824025 -10.334804 -3.776012 -5.662552 -8.906435 -19.485283 1.222009 -57.610381 -27.728359 52.569283 -1.483102 1.592707 1.119973 -19.710376 -29.608081 8.000865 69.017394 87.137351 67.727541 3.792990 -27.783232 -4.381106 -1.310808 3.157865 -0.588804 -11.526842 -46.156098 13.988566 177.095366 73.448164 174.873186 -2.069632 -26.078512 1.398532 -0.236910 -1.221417 -0.107498
